<svg xmlns="http://www.w3.org/2000/svg" version="1.1" xmlns:xlink="http://www.w3.org/1999/xlink" width="512" height="512" x="0" y="0" viewBox="0 0 682.667 682.667" style="enable-background:new 0 0 512 512" xml:space="preserve" class=""><g><defs><clipPath id="a" clipPathUnits="userSpaceOnUse"><path d="M0 512h512V0H0Z" fill="#000000" opacity="1" data-original="#000000" class=""></path></clipPath></defs><g clip-path="url(#a)" transform="matrix(1.33333 0 0 -1.33333 0 682.667)"><path d="M0 0v-74.247c0-13.032-10.566-23.598-23.6-23.598h-39.391c-13.033 0-23.599 10.566-23.599 23.598 0 13.034 10.566 23.6 23.599 23.6h15.793V0Z" style="fill-opacity:1;fill-rule:nonzero;stroke:none" transform="translate(373.543 105.345)" fill="#a855f7" data-original="#88f8d8" class="" opacity="1"></path><path d="M0 0v-74.247c0-13.032-10.566-23.598-23.599-23.598h-39.392c-13.033 0-23.598 10.566-23.598 23.598 0 13.034 10.565 23.6 23.598 23.6h15.793V0Z" style="fill-opacity:1;fill-rule:nonzero;stroke:none" transform="translate(263.712 105.345)" fill="#a855f7" data-original="#88f8d8" class="" opacity="1"></path><path d="M0 0v-74.247c0-13.032-10.566-23.598-23.6-23.598h-39.391c-13.033 0-23.599 10.566-23.599 23.598 0 13.034 10.566 23.6 23.599 23.6h15.793V0" style="stroke-width:15;stroke-linecap:round;stroke-linejoin:round;stroke-miterlimit:10;stroke-dasharray:none;stroke-opacity:1" transform="translate(373.543 105.345)" fill="none" stroke="#5b21b6" stroke-width="15" stroke-linecap="round" stroke-linejoin="round" stroke-miterlimit="10" stroke-dasharray="none" stroke-opacity="" data-original="#007ea8" opacity="1" class=""></path><path d="M0 0v-74.247c0-13.032-10.566-23.598-23.599-23.598h-39.392c-13.033 0-23.598 10.566-23.598 23.598 0 13.034 10.565 23.6 23.598 23.6h15.793V0" style="stroke-width:15;stroke-linecap:round;stroke-linejoin:round;stroke-miterlimit:10;stroke-dasharray:none;stroke-opacity:1" transform="translate(263.712 105.345)" fill="none" stroke="#5b21b6" stroke-width="15" stroke-linecap="round" stroke-linejoin="round" stroke-miterlimit="10" stroke-dasharray="none" stroke-opacity="" data-original="#007ea8" opacity="1" class=""></path><path d="M263.712 73.811h-47.198v31.535h47.198zM373.543 73.811h-47.198v31.535h47.198z" style="fill-opacity:1;fill-rule:nonzero;stroke:none" fill="#5b21b6" data-original="#007ea8" class="" opacity="1"></path><path d="M0 0v-270.587c0-35.502-28.782-64.284-64.284-64.284h-199.06V64.284h199.06C-28.782 64.284 0 35.502 0 0" style="fill-opacity:1;fill-rule:nonzero;stroke:none" transform="translate(452.746 440.216)" fill="#d8b4fe" data-original="#a4bcff" class="" opacity="1"></path><path d="M0 0h-25.78c-13.361 0-24.192-10.831-24.192-24.192s10.831-24.192 24.192-24.192H0c13.361 0 24.192 10.831 24.192 24.192S13.361 0 0 0" style="fill-opacity:1;fill-rule:nonzero;stroke:none" transform="translate(109.227 464.939)" fill="#facc15" data-original="#ffd600" class="" opacity="1"></path><path d="M0 0h-25.78c-13.361 0-24.192-10.831-24.192-24.192s10.831-24.193 24.192-24.193H0c13.361 0 24.192 10.832 24.192 24.193S13.361 0 0 0" style="fill-opacity:1;fill-rule:nonzero;stroke:none" transform="translate(109.227 374.39)" fill="#facc15" data-original="#ffd600" class="" opacity="1"></path><path d="M0 0h-25.78c-13.361 0-24.192-10.832-24.192-24.192 0-13.361 10.831-24.193 24.192-24.193H0c13.361 0 24.192 10.832 24.192 24.193C24.192-10.832 13.361 0 0 0" style="fill-opacity:1;fill-rule:nonzero;stroke:none" transform="translate(109.227 283.84)" fill="#facc15" data-original="#ffd600" class="" opacity="1"></path><path d="M0 0c-21.85 0-39.571-17.711-39.571-39.561h12.89c13.361 0 24.192-10.831 24.192-24.192S-13.32-87.945-26.681-87.945h-12.89v-42.165h12.89c13.361 0 24.192-10.831 24.192-24.193 0-13.361-10.831-24.192-24.192-24.192h-12.89v-42.165h12.89c13.361 0 24.192-10.831 24.192-24.192s-10.831-24.192-24.192-24.192h-12.89v-42.165h12.89c13.361 0 24.192-10.832 24.192-24.192 0-13.362-10.831-24.193-24.192-24.193h-12.89c0-21.85 17.721-39.561 39.571-39.561h53.494V0Z" style="fill-opacity:1;fill-rule:nonzero;stroke:none" transform="translate(135.908 504.5)" fill="#a855f7" data-original="#7181ff" class="" opacity="1"></path><path d="M0 0h-25.78c-13.361 0-24.192-10.832-24.192-24.192 0-13.362 10.831-24.193 24.192-24.193H0c13.361 0 24.192 10.831 24.192 24.193C24.192-10.832 13.361 0 0 0" style="fill-opacity:1;fill-rule:nonzero;stroke:none" transform="translate(109.227 193.291)" fill="#facc15" data-original="#ffd600" class="" opacity="1"></path><path d="M0 0h-93.448c-14.238 0-25.78-11.542-25.78-25.78v-38.989c0-14.238 11.542-25.78 25.78-25.78H0c14.238 0 25.78 11.542 25.78 25.78v38.989C25.78-11.542 14.238 0 0 0" style="fill-opacity:1;fill-rule:nonzero;stroke:none" transform="translate(367.798 440.747)" fill="#fef08a" data-original="#ffff6f" class="" opacity="1"></path><path d="M0 0c0-6.395-5.184-11.579-11.578-11.579-6.396 0-11.579 5.184-11.579 11.579 0 6.395 5.183 11.578 11.579 11.578C-5.184 11.578 0 6.395 0 0" style="fill-opacity:1;fill-rule:nonzero;stroke:none" transform="translate(387.223 251.13)" fill="#5b21b6" data-original="#2115c2" class="" opacity="1"></path><path d="M0 0h49.034" style="stroke-width:15;stroke-linecap:round;stroke-linejoin:round;stroke-miterlimit:10;stroke-dasharray:none;stroke-opacity:1" transform="translate(296.557 219.923)" fill="none" stroke="#5b21b6" stroke-width="15" stroke-linecap="round" stroke-linejoin="round" stroke-miterlimit="10" stroke-dasharray="none" stroke-opacity="" data-original="#2115c2" class="" opacity="1"></path><path d="M0 0c0-6.395 5.184-11.579 11.579-11.579 6.394 0 11.578 5.184 11.578 11.579 0 6.395-5.184 11.578-11.578 11.578C5.184 11.578 0 6.395 0 0" style="fill-opacity:1;fill-rule:nonzero;stroke:none" transform="translate(254.925 251.13)" fill="#5b21b6" data-original="#2115c2" class="" opacity="1"></path><path d="M0 0v-270.587c0-35.502-28.782-64.284-64.284-64.284h-199.06V64.284h199.06C-28.782 64.284 0 35.502 0 0Z" style="stroke-width:15;stroke-linecap:round;stroke-linejoin:round;stroke-miterlimit:10;stroke-dasharray:none;stroke-opacity:1" transform="translate(452.746 440.216)" fill="none" stroke="#5b21b6" stroke-width="15" stroke-linecap="round" stroke-linejoin="round" stroke-miterlimit="10" stroke-dasharray="none" stroke-opacity="" data-original="#2115c2" class="" opacity="1"></path><path d="M0 0c0-21.85 17.721-39.561 39.571-39.561h53.494v399.155H39.571C17.721 359.594 0 341.883 0 320.033" style="stroke-width:15;stroke-linecap:round;stroke-linejoin:round;stroke-miterlimit:10;stroke-dasharray:none;stroke-opacity:1" transform="translate(96.336 144.906)" fill="none" stroke="#5b21b6" stroke-width="15" stroke-linecap="round" stroke-linejoin="round" stroke-miterlimit="10" stroke-dasharray="none" stroke-opacity="" data-original="#2115c2" class="" opacity="1"></path><path d="M0 0v-42.165" style="stroke-width:15;stroke-linecap:round;stroke-linejoin:round;stroke-miterlimit:10;stroke-dasharray:none;stroke-opacity:1" transform="translate(96.336 235.456)" fill="none" stroke="#5b21b6" stroke-width="15" stroke-linecap="round" stroke-linejoin="round" stroke-miterlimit="10" stroke-dasharray="none" stroke-opacity="" data-original="#2115c2" class="" opacity="1"></path><path d="M0 0v-42.165" style="stroke-width:15;stroke-linecap:round;stroke-linejoin:round;stroke-miterlimit:10;stroke-dasharray:none;stroke-opacity:1" transform="translate(96.336 326.005)" fill="none" stroke="#5b21b6" stroke-width="15" stroke-linecap="round" stroke-linejoin="round" stroke-miterlimit="10" stroke-dasharray="none" stroke-opacity="" data-original="#2115c2" class="" opacity="1"></path><path d="M0 0v-42.165" style="stroke-width:15;stroke-linecap:round;stroke-linejoin:round;stroke-miterlimit:10;stroke-dasharray:none;stroke-opacity:1" transform="translate(96.336 416.555)" fill="none" stroke="#5b21b6" stroke-width="15" stroke-linecap="round" stroke-linejoin="round" stroke-miterlimit="10" stroke-dasharray="none" stroke-opacity="" data-original="#2115c2" class="" opacity="1"></path><path d="M0 0h-93.448c-14.238 0-25.78-11.542-25.78-25.78v-38.989c0-14.238 11.542-25.78 25.78-25.78H0c14.238 0 25.78 11.542 25.78 25.78v38.989C25.78-11.542 14.238 0 0 0Z" style="stroke-width:15;stroke-linecap:round;stroke-linejoin:round;stroke-miterlimit:10;stroke-dasharray:none;stroke-opacity:1" transform="translate(367.798 440.747)" fill="none" stroke="#e11d48" stroke-width="15" stroke-linecap="round" stroke-linejoin="round" stroke-miterlimit="10" stroke-dasharray="none" stroke-opacity="" data-original="#f95116" class="" opacity="1"></path><path d="M0 0h54.183" style="stroke-width:15;stroke-linecap:round;stroke-linejoin:round;stroke-miterlimit:10;stroke-dasharray:none;stroke-opacity:1" transform="translate(293.982 410.541)" fill="none" stroke="#5b21b6" stroke-width="15" stroke-linecap="round" stroke-linejoin="round" stroke-miterlimit="10" stroke-dasharray="none" stroke-opacity="" data-original="#2115c2" class="" opacity="1"></path><path d="M0 0h54.183" style="stroke-width:15;stroke-linecap:round;stroke-linejoin:round;stroke-miterlimit:10;stroke-dasharray:none;stroke-opacity:1" transform="translate(293.982 380.403)" fill="none" stroke="#5b21b6" stroke-width="15" stroke-linecap="round" stroke-linejoin="round" stroke-miterlimit="10" stroke-dasharray="none" stroke-opacity="" data-original="#2115c2" class="" opacity="1"></path><path d="M0 0h-25.78c-13.361 0-24.192-10.831-24.192-24.192s10.831-24.192 24.192-24.192H0c13.361 0 24.192 10.831 24.192 24.192S13.361 0 0 0Z" style="stroke-width:15;stroke-linecap:round;stroke-linejoin:round;stroke-miterlimit:10;stroke-dasharray:none;stroke-opacity:1" transform="translate(109.227 464.939)" fill="none" stroke="#e11d48" stroke-width="15" stroke-linecap="round" stroke-linejoin="round" stroke-miterlimit="10" stroke-dasharray="none" stroke-opacity="" data-original="#f95116" class="" opacity="1"></path><path d="M0 0h-25.78c-13.361 0-24.192-10.831-24.192-24.192s10.831-24.193 24.192-24.193H0c13.361 0 24.192 10.832 24.192 24.193S13.361 0 0 0Z" style="stroke-width:15;stroke-linecap:round;stroke-linejoin:round;stroke-miterlimit:10;stroke-dasharray:none;stroke-opacity:1" transform="translate(109.227 374.39)" fill="none" stroke="#e11d48" stroke-width="15" stroke-linecap="round" stroke-linejoin="round" stroke-miterlimit="10" stroke-dasharray="none" stroke-opacity="" data-original="#f95116" class="" opacity="1"></path><path d="M0 0h-25.78c-13.361 0-24.192-10.832-24.192-24.192 0-13.361 10.831-24.193 24.192-24.193H0c13.361 0 24.192 10.832 24.192 24.193C24.192-10.832 13.361 0 0 0Z" style="stroke-width:15;stroke-linecap:round;stroke-linejoin:round;stroke-miterlimit:10;stroke-dasharray:none;stroke-opacity:1" transform="translate(109.227 283.84)" fill="none" stroke="#e11d48" stroke-width="15" stroke-linecap="round" stroke-linejoin="round" stroke-miterlimit="10" stroke-dasharray="none" stroke-opacity="" data-original="#f95116" class="" opacity="1"></path><path d="M0 0h-25.78c-13.361 0-24.192-10.832-24.192-24.192 0-13.362 10.831-24.193 24.192-24.193H0c13.361 0 24.192 10.831 24.192 24.193C24.192-10.832 13.361 0 0 0Z" style="stroke-width:15;stroke-linecap:round;stroke-linejoin:round;stroke-miterlimit:10;stroke-dasharray:none;stroke-opacity:1" transform="translate(109.227 193.291)" fill="none" stroke="#e11d48" stroke-width="15" stroke-linecap="round" stroke-linejoin="round" stroke-miterlimit="10" stroke-dasharray="none" stroke-opacity="" data-original="#f95116" class="" opacity="1"></path></g></g></svg>