<svg height="512" viewBox="0 0 60 60" width="512" xmlns="http://www.w3.org/2000/svg"><g id="Icons"><path d="m42 3v6.27a2 2 0 0 0 -1-.27h-36a4 4 0 1 1 0-8h35a2.006 2.006 0 0 1 2 2z" fill="#c6d8fb"/><path d="m40 1h-3a2.006 2.006 0 0 1 2 2v6h2a2 2 0 0 1 1 .27v-6.27a2.006 2.006 0 0 0 -2-2z" fill="#a4c3fd"/><path d="m43 11v14.51a28.651 28.651 0 0 1 -13.43 3.49.585.585 0 0 0 -.57.58v7.76a22.959 22.959 0 0 0 8.12 17.66h-32.12a3.995 3.995 0 0 1 -4-4v-46a4 4 0 0 0 4 4h36a2 2 0 0 1 2 2z" fill="#e8edfc"/><path d="m29.57 29a28.651 28.651 0 0 0 13.43-3.49v-14.51a2 2 0 0 0 -2-2h-3a2 2 0 0 1 2 2v14.51a28.651 28.651 0 0 1 -13.43 3.49.585.585 0 0 0 -.57.58v7.76a22.959 22.959 0 0 0 8.12 17.66h3a22.959 22.959 0 0 1 -8.12-17.66v-7.76a.585.585 0 0 1 .57-.58z" fill="#cad9fc"/><rect fill="#c6d8fb" height="10" rx="1" width="24" x="10" y="15"/><path d="m33 15h-3a1 1 0 0 1 1 1v8a1 1 0 0 1 -1 1h3a1 1 0 0 0 1-1v-8a1 1 0 0 0 -1-1z" fill="#a4c3fd"/><path d="m47 15v2a3 3 0 0 1 -3 3h-1v-8h1a3 3 0 0 1 3 3z" fill="#a4c2f7"/><path d="m47 23v2a2.969 2.969 0 0 1 -.33 1.36 20.433 20.433 0 0 1 -2.37-1.27.545.545 0 0 0 -.6 0c-.17.11-.4.25-.7.42v-5.51h1a3 3 0 0 1 3 3z" fill="#a4c2f7"/><path d="m59 29.58v7.76a23.137 23.137 0 0 1 -14.56 21.57 1.121 1.121 0 0 1 -.88 0 23.956 23.956 0 0 1 -6.44-3.91 22.959 22.959 0 0 1 -8.12-17.66v-7.76a.585.585 0 0 1 .57-.58 28.651 28.651 0 0 0 13.43-3.49c.3-.17.53-.31.7-.42a.545.545 0 0 1 .6 0 20.433 20.433 0 0 0 2.37 1.27 29.429 29.429 0 0 0 11.76 2.64.585.585 0 0 1 .57.58z" fill="#c6d8fb"/><path d="m58.43 29a29.429 29.429 0 0 1 -11.76-2.64 20.433 20.433 0 0 1 -2.37-1.27.545.545 0 0 0 -.6 0c-.17.11-.4.25-.7.42-.147.084-.316.176-.494.271.339.179.717.371 1.164.579a29.429 29.429 0 0 0 11.76 2.64.585.585 0 0 1 .57.58v7.76a23.084 23.084 0 0 1 -13.5 21.087c.351.163.7.335 1.058.483a1.121 1.121 0 0 0 .88 0 23.137 23.137 0 0 0 14.562-21.57v-7.76a.585.585 0 0 0 -.57-.58z" fill="#a4c3fd"/><path d="m44 54.729a19.054 19.054 0 0 1 -11-17.389v-4.567a32.8 32.8 0 0 0 11-3.265 32.8 32.8 0 0 0 11 3.265v4.567a19.055 19.055 0 0 1 -11 17.389z" fill="#e8edfc"/><path d="m44 29.508c-.436.222-.948.461-1.5.7a33.114 33.114 0 0 0 9.5 2.565v4.567a18.989 18.989 0 0 1 -9.5 16.581c.486.286.983.56 1.5.808a19.055 19.055 0 0 0 11-17.389v-4.567a32.8 32.8 0 0 1 -11-3.265z" fill="#cad9fc"/></g><g id="Icons_copy_2" data-name="Icons copy 2"><path d="m5 55h3a4 4 0 0 1 -4-4v-46a4 4 0 0 1 4-4h-3a4 4 0 0 0 -4 4v46a4 4 0 0 0 4 4z" fill="#fff"/></g><g id="Icons_copy" data-name="Icons copy"><path d="m0 43h2v8h-2z" fill="#fff"/><g fill="#428dff"><circle cx="1" cy="47" r="1"/><path d="m33 26a2 2 0 0 0 2-2v-8a2 2 0 0 0 -2-2h-22a2 2 0 0 0 -2 2v8a2 2 0 0 0 2 2zm-22-10h22v8h-22z"/><path d="m58.447 28a28.532 28.532 0 0 1 -10.547-2.184 3.9 3.9 0 0 0 .1-.816v-2a3.974 3.974 0 0 0 -1.382-3 3.974 3.974 0 0 0 1.382-3v-2a4 4 0 0 0 -4-4 2.985 2.985 0 0 0 -1-2.22v-5.78a3 3 0 0 0 -3-3h-35a4.995 4.995 0 0 0 -5 5v38a1 1 0 0 0 2 0v-34.026a4.948 4.948 0 0 0 3 1.026h36a1 1 0 0 1 1 1v13.917a27.865 27.865 0 0 1 -12.447 3.083 1.591 1.591 0 0 0 -1.553 1.584v7.756a23.9 23.9 0 0 0 6.6 16.66h-29.6a2.994 2.994 0 0 1 -3-3 1 1 0 0 0 -2 0 4.995 4.995 0 0 0 5 5h31.749a25.472 25.472 0 0 0 6.436 3.839 2.155 2.155 0 0 0 1.632 0 24.033 24.033 0 0 0 15.183-22.499v-7.756a1.591 1.591 0 0 0 -1.553-1.584zm-12.447-5v1.917c-.515-.274-.908-.509-1.164-.672a1.548 1.548 0 0 0 -.836-.245v-3a2 2 0 0 1 2 2zm0-8v2a2 2 0 0 1 -2 2v-6a2 2 0 0 1 2 2zm-41-7a3 3 0 1 1 0-6h35a1 1 0 0 1 1 1v5zm53 29.34a22.065 22.065 0 0 1 -13.944 20.649.16.16 0 0 1 -.11 0 22.066 22.066 0 0 1 -13.946-20.649v-7.351a29.205 29.205 0 0 0 14-3.909 29.2 29.2 0 0 0 14 3.909z"/><path d="m43.546 28.617a31.721 31.721 0 0 1 -10.662 3.163 1 1 0 0 0 -.884.993v4.567a20.175 20.175 0 0 0 11.565 18.291 1.01 1.01 0 0 0 .868 0 20.183 20.183 0 0 0 11.567-18.291v-4.567a1 1 0 0 0 -.884-.993 31.721 31.721 0 0 1 -10.662-3.163 1 1 0 0 0 -.908 0zm10.454 5.035v3.688a17.941 17.941 0 0 1 -10 16.273 17.935 17.935 0 0 1 -10-16.273v-3.688a33.725 33.725 0 0 0 10-3.027 33.765 33.765 0 0 0 10 3.027z"/><path d="m40.707 42.293a1 1 0 0 0 -1.414 1.414l2 2a1 1 0 0 0 .707.293h.071a1 1 0 0 0 .729-.4l6-8a1 1 0 1 0 -1.6-1.2l-5.308 7.078z"/></g></g></svg>